HIERARCHY
ROOT Hips
{
  OFFSET 0 0 0
  CHANNELS 6 Xposition Yposition Zposition Zrotation Xrotation Yrotation
  JOINT Spine
  {
    OFFSET 0 8.14573 0
    CHANNELS 3 Zrotation Xrotation Yrotation
    JOINT Spine1
    {
      OFFSET 0 24.111 0
      CHANNELS 3 Zrotation Xrotation Yrotation
      JOINT Neck
      {
        OFFSET 0 24.012 2.18291
        CHANNELS 3 Zrotation Xrotation Yrotation
        JOINT Head
        {
          OFFSET 0 13.9074 -1.98676
          CHANNELS 3 Zrotation Xrotation Yrotation
          End Site
          {
            OFFSET 0 19.8676 0
          }
        }
      }
      JOINT LeftShoulder
      {
        OFFSET 3.98182 23.2766 -0.033966
        CHANNELS 3 Zrotation Xrotation Yrotation
        JOINT LeftArm
        {
          OFFSET 8.45088 0 0
          CHANNELS 3 Zrotation Xrotation Yrotation
          JOINT LeftForeArm
          {
            OFFSET 36.5975 0 0
            CHANNELS 3 Zrotation Xrotation Yrotation
            JOINT LeftHand
            {
              OFFSET 28.1209 0 0
              CHANNELS 3 Zrotation Xrotation Yrotation
              End Site
              {
                OFFSET 14.9007 0 0
              }
            }
          }
        }
      }
      JOINT RightShoulder
      {
        OFFSET -3.9644 23.2766 -0.033966
        CHANNELS 3 Zrotation Xrotation Yrotation
        JOINT RightArm
        {
          OFFSET -8.45088 0 0
          CHANNELS 3 Zrotation Xrotation Yrotation
          JOINT RightForeArm
          {
            OFFSET -36.5975 0 0
            CHANNELS 3 Zrotation Xrotation Yrotation
            JOINT RightHand
            {
              OFFSET -28.1209 0 0
              CHANNELS 3 Zrotation Xrotation Yrotation
              End Site
              {
                OFFSET -14.9007 0 0
              }
            }
          }
        }
      }
    }
  }
  JOINT LeftUpLeg
  {
    OFFSET 9.93382 0 0
    CHANNELS 3 Zrotation Xrotation Yrotation
    JOINT LeftLeg
    {
      OFFSET 0 -42.7024 0
      CHANNELS 3 Zrotation Xrotation Yrotation
      JOINT LeftFoot
      {
        OFFSET 0 -37.602 0
        CHANNELS 3 Zrotation Xrotation Yrotation
        JOINT LeftToeBase
        {
          OFFSET 0 -6.45698 14.9007
          CHANNELS 3 Zrotation Xrotation Yrotation
          End Site
          {
            OFFSET 0 0 3.97353
          }
        }
      }
    }
  }
  JOINT RightUpLeg
  {
    OFFSET -9.93382 0 0
    CHANNELS 3 Zrotation Xrotation Yrotation
    JOINT RightLeg
    {
      OFFSET 0 -42.7024 0
      CHANNELS 3 Zrotation Xrotation Yrotation
      JOINT RightFoot
      {
        OFFSET 0 -37.602 0
        CHANNELS 3 Zrotation Xrotation Yrotation
        JOINT RightToeBase
        {
          OFFSET 0 -6.45698 14.9007
          CHANNELS 3 Zrotation Xrotation Yrotation
          End Site
          {
            OFFSET 0 0 3.97353
          }
        }
      }
    }
  }
}
MOTION
Frames:	20
Frame Time:	0.0166667
29.4834 96.5509 -329.327 1.47734 1.52965 3.42647 0.492822 -1.27018 -0.667426 -1.15812 -2.51284 -0.247312 -0.022065 12.4316 -2.53977 5.11971 11.9266 -2.44526 9.9883 2.12366 -2.0558 -21.4385 -0.593553 -1.28605 1.91448 -19.4563 -4.56198 4.91077 -19.3975 -0.323254 -9.23404 -0.039827 -0.328608 24.3203 -3.01605 -7.89375 0.634511 -6.71032 4.56453 -3.60678 -6.84291 3.4364 1.90828 5.82506 1.05093 -3.33477 -0.558919 -2.22112 2.29905 -6.06078 15.4683 -4.96962e-017 -9.93923e-017 -3.18055e-015 -6.56146 2.95585 1.90397 4.33503 5.2402 4.84573 1.10675 -8.61436 -17.2265 -2.23633e-016 -1.98785e-016 -0 
29.4745 96.5509 -329.327 1.46285 1.52962 3.33963 0.492514 -1.29665 -0.667433 -1.15632 -2.43375 -0.247297 0.04509 12.4429 -2.51281 5.07679 11.8869 -2.4194 9.98812 2.15261 -2.03196 -21.4091 -0.658065 -1.23709 1.91161 -19.5924 -4.59252 4.99393 -19.5311 -0.266974 -9.23079 -0.024431 -0.355207 24.3607 -2.95235 -7.84602 0.584968 -6.85978 4.5586 -3.54541 -6.98798 3.41949 1.91737 5.84686 1.0904 -3.33565 -0.583407 -2.21415 2.30806 -6.05915 15.5242 2.48481e-017 0 -3.18055e-015 -6.54773 2.93371 1.93059 4.33378 5.24386 4.87826 1.10342 -8.59661 -17.1869 -6.70898e-016 1.98785e-016 -0 
29.4694 96.5509 -329.333 1.44628 1.54961 3.2522 0.491925 -1.3472 -0.667447 -1.13969 -2.34395 -0.247281 0.130824 12.4487 -2.48728 5.017 11.8503 -2.39659 9.97576 2.09676 -2.05428 -21.4102 -0.667593 -1.12177 1.93401 -19.7782 -4.62556 4.62914 -19.7219 -0.453677 -9.19734 -0.007086 -0.357625 24.3413 -3.0141 -7.83018 0.56676 -7.10946 4.50956 -3.39888 -7.23571 3.5358 1.92807 5.84429 1.08275 -3.3354 -0.606688 -2.10577 2.28449 -6.0694 15.5162 -5.2181e-016 -1.98785e-016 -0 -6.54416 2.89709 2.00116 4.3547 5.22297 4.8416 1.10388 -8.57975 -17.1347 -3.23025e-016 -1.98785e-016 1.59028e-015 
29.4622 96.5509 -329.341 1.43507 1.54749 3.16185 0.491743 -1.36279 -0.667451 -1.12577 -2.23965 -0.247263 0.243264 14.4119 -2.65529 5.08838 8.6716 -2.42481 9.95081 2.03737 -1.99353 -21.4332 -0.11033 -1.04913 2.04181 -20.3079 -4.68448 4.76207 -20.2426 -0.333785 -9.18488 -0.029875 -0.389062 24.3499 -3.0937 -7.82031 0.583394 -7.49378 4.56819 -3.30032 -7.61787 3.53657 1.92692 5.85702 1.14025 -3.33367 -0.617991 -2.03148 2.2785 -6.0863 15.4714 -9.93923e-017 -9.93923e-017 -3.18055e-015 -6.53653 2.87733 2.05465 4.35594 5.21306 4.84965 1.0813 -8.55247 -17.1111 -7.45443e-017 0 1.59028e-015 
29.4585 96.5494 -329.345 1.41206 1.51941 3.09657 0.493312 -1.37935 -0.664509 -1.11558 -2.1385 -0.245047 0.273204 12.4353 -2.42682 4.98856 11.852 -2.33992 9.95062 2.03773 -2.06122 -21.4615 -0.729465 -1.01625 2.0356 -20.3084 -4.55192 4.88686 -20.2469 -0.359257 -9.15017 0.164863 -0.395761 24.0152 -4.13405 -7.855 1.20073 -7.45681 4.79631 -3.47758 -7.61373 3.55686 1.94521 5.90341 1.06371 -3.33202 -0.64568 -1.93748 2.28215 -6.10533 15.5203 -2.98177e-016 -9.93923e-017 -3.18055e-015 -6.51789 2.89709 2.1154 4.36331 5.19069 4.85804 1.08812 -8.53798 -17.1308 2.98177e-016 0 -0 
29.448 96.5409 -329.363 1.40995 1.52681 3.00555 0.475129 -1.41377 -0.652282 -1.10604 -1.97972 -0.240588 0.438994 14.3221 -2.61859 5.00849 8.75743 -2.39955 9.9137 1.97249 -1.97103 -21.4709 -1.10138 -1.09815 2.06111 -20.5038 -4.42938 5.40774 -20.4414 -0.276453 -9.1575 -0.036828 -0.416049 24.0596 -4.17748 -7.93622 1.23534 -7.73681 4.88789 -3.33312 -7.89347 3.62196 1.94405 5.88641 1.14671 -3.32955 -0.627088 -1.90262 2.30161 -6.13048 15.5013 -2.48481e-017 -9.93923e-017 -6.36111e-015 -6.5061 2.83747 2.06535 4.33258 5.23908 4.93752 1.09517 -8.55865 -17.0492 9.93923e-017 1.98785e-016 -1.59028e-015 
29.4408 96.536 -329.379 1.40041 1.50853 2.94568 0.466655 -1.44457 -0.646002 -1.12148 -1.85151 -0.236229 0.527062 12.3726 -2.41406 4.88262 11.9029 -2.34245 9.88913 2.00976 -2.03567 -21.5034 -1.21866 -1.04871 1.92933 -21.1466 -4.53807 4.67119 -21.0908 -0.409143 -9.09982 -0.032483 -0.346365 24.0855 -4.34685 -7.98535 1.26517 -8.08784 4.9075 -3.13433 -8.23976 3.62759 1.95944 5.90776 1.14545 -3.32925 -0.63432 -1.94274 2.28018 -6.15804 15.5883 -7.45443e-017 -9.93923e-017 -3.18055e-015 -6.50293 2.82755 2.08092 4.34579 5.25174 5.01296 0.837857 -8.57264 -17.1263 -1.98785e-016 1.98785e-016 -0 
29.4347 96.5347 -329.39 1.38219 1.46674 2.90262 0.468363 -1.46074 -0.645201 -1.12585 -1.69519 -0.234567 0.641434 12.3497 -2.45714 4.85817 11.9836 -2.39613 9.7857 2.01993 -2.0675 -21.5221 -1.24383 -1.00485 2.00622 -21.8946 -4.68205 4.20398 -21.8319 -0.391922 -9.04428 -0.023569 -0.309061 24.4235 -3.91812 -7.90042 0.769466 -8.84345 4.77229 -2.59504 -8.95952 3.77116 1.97606 5.94575 1.15834 -3.32829 -0.634129 -1.87133 2.27195 -6.16003 15.5639 -5.46658e-016 2.98177e-016 -3.18055e-015 -6.48494 2.85424 2.12118 4.35415 5.24711 5.04743 1.08927 -8.56956 -17.0945 9.93923e-017 -3.97569e-016 -0 
29.4262 96.534 -329.413 1.37109 1.45056 2.85634 0.440272 -1.48897 -0.622536 -1.08417 -1.5652 -0.224956 0.707419 12.3684 -2.44779 4.86415 12.003 -2.38929 9.4666 2.21123 -2.24708 -21.3644 -1.53545 -0.923873 2.01801 -23.1335 -4.972 4.2285 -23.0631 -0.299999 -8.96172 -0.015867 -0.227186 24.384 -4.18203 -7.95302 0.898263 -9.35782 4.81023 -2.46565 -9.47532 3.78178 1.99138 5.94988 1.18451 -3.33237 -0.624275 -1.94313 2.30525 -6.18032 15.6512 2.48481e-017 -9.93923e-017 -3.18055e-015 -6.47293 2.72747 1.14775 4.26626 5.5908 6.24756 1.04099 -8.69349 -17.2716 1.49089e-016 3.97569e-016 -0 
29.4185 96.5335 -329.442 1.35976 1.4307 2.83081 0.38767 -1.52348 -0.590115 -0.953413 -1.42327 -0.21101 0.641906 12.4076 -2.42499 4.93565 12.0085 -2.36044 9.08892 2.14779 -2.26026 -21.2024 -2.01477 -0.999779 1.74946 -24.1335 -5.39855 4.34157 -24.063 -0.138618 -8.92713 -0.007784 -0.144441 24.5768 -3.99339 -7.90135 0.571816 -10.1666 4.62806 -1.87157 -10.2529 3.95137 2.00924 5.95257 1.18968 -3.33685 -0.619501 -1.96052 2.31081 -6.18401 15.67 5.96354e-016 -9.93923e-017 -3.18055e-015 -6.45304 2.71019 1.13762 4.2541 5.61093 6.23914 1.04364 -8.67793 -17.2279 -2.98177e-016 3.97569e-016 1.59028e-015 
29.4152 96.5329 -329.482 1.37191 1.42673 2.82542 0.367481 -1.54155 -0.541756 -0.965414 -1.33666 -0.194276 0.686215 12.512 -2.506 5.02743 11.9919 -2.44153 8.84183 2.1158 -2.29233 -21.1515 -2.42578 -1.3377 1.70103 -24.7712 -5.43251 4.35449 -24.698 -0.003741 -8.81398 0.051705 -0.061992 24.5861 -4.27786 -7.94448 0.671517 -10.8294 4.66781 -1.69946 -10.9151 4.0443 1.99632 5.92031 1.19718 -3.33506 -0.602516 -1.88895 2.29536 -6.18905 15.6206 -0 -9.93923e-017 -0 -6.47404 2.67977 1.13778 4.27053 5.62417 6.23232 1.04164 -8.68971 -17.1982 2.48481e-017 0 -0 
29.4148 96.5322 -329.513 1.36469 1.38711 2.86476 0.418654 -1.54465 -0.506139 -1.09314 -1.2259 -0.183131 0.838359 12.5305 -2.5417 5.06969 12.0571 -2.48527 8.76035 1.87137 -2.4748 -21.2105 -1.78869 -1.46408 1.78295 -25.8369 -5.58144 4.82295 -25.7463 0.328472 -8.66126 0.132158 0.022647 24.5427 -4.76788 -8.03597 0.950092 -11.337 4.86007 -1.86998 -11.4401 3.97708 2.00428 5.93259 1.1456 -3.33526 -0.60661 -1.85376 2.30378 -6.17995 15.5934 7.45443e-017 -1.98785e-016 -0 -6.4666 2.71725 1.13701 4.27167 5.60618 6.26248 1.04387 -8.67846 -17.2588 -4.96962e-017 -1.98785e-016 -0 
29.4145 96.5316 -329.555 1.3751 1.37635 2.91272 0.40055 -1.58924 -0.488315 -1.09795 -1.07014 -0.17578 0.884125 12.5276 -2.57348 5.09576 12.0715 -2.51968 8.68456 1.89904 -2.61502 -21.2927 -1.82291 -1.72881 1.51099 -26.1575 -5.8947 4.83324 -26.0707 0.449373 -8.56438 0.164109 0.058026 24.6007 -4.96251 -7.93851 0.9946 -11.8554 4.82371 -1.87808 -11.9612 4.03753 2.004 5.90621 1.15555 -3.34695 -0.594184 -1.92059 2.32911 -6.17461 15.6075 -2.48481e-016 4.96962e-017 -3.18055e-015 -6.47489 2.82465 2.07018 4.35567 5.27321 5.06426 1.07681 -8.55229 -17.0631 -3.97569e-016 -1.98785e-016 -0 
29.4144 96.5311 -329.606 1.39673 1.37604 2.96908 0.370415 -1.627 -0.501314 -1.10262 -0.921298 -0.175277 0.91045 12.5393 -2.57467 5.0912 11.9948 -2.51845 8.53689 2.05792 -2.77651 -21.3413 -1.4229 -2.10652 1.5782 -26.9259 -5.99743 4.88638 -26.8364 0.414101 -8.33309 0.247285 0.154669 24.4942 -5.18779 -7.83128 1.11252 -12.3638 4.81312 -1.90717 -12.4779 4.21273 1.99843 5.86427 1.09277 -3.3661 -0.595437 -1.89408 2.32238 -6.16173 15.5775 4.96962e-017 -9.93923e-017 -0 -6.49595 2.80468 2.01763 4.35611 5.28571 5.15095 0.578459 -8.55511 -17.2688 -9.93923e-017 1.98785e-016 -1.59028e-015 
29.4146 96.5308 -329.65 1.39397 1.33937 3.04946 0.363446 -1.63924 -0.532695 -1.0844 -0.75336 -0.17553 0.916809 12.5053 -2.5601 5.03982 11.9498 -2.50368 8.34107 2.14494 -2.91636 -21.3135 -0.849334 -2.45617 1.46809 -27.4888 -6.20241 4.77796 -27.4042 0.379815 -8.17028 0.24061 0.273592 24.4341 -5.62637 -7.69722 1.12661 -12.7081 4.69337 -1.84712 -12.8214 4.34131 2.01315 5.85247 1.13679 -3.37145 -0.575356 -2.05419 2.343 -6.13643 15.6291 1.98785e-016 0 -0 -6.48045 2.84047 2.00809 4.34405 5.25387 5.02722 1.08235 -8.54695 -17.0798 -2.23633e-016 -1.98785e-016 -0 
29.415 96.5308 -329.708 1.39885 1.34973 3.12496 0.33184 -1.65422 -0.54101 -1.03291 -0.626389 -0.176169 0.96585 14.3279 -2.71747 5.08158 8.88599 -2.51303 8.13262 2.09768 -3.01672 -21.3385 -0.11413 -2.88182 1.5272 -28.1946 -6.33406 5.137 -28.1025 0.444991 -8.04633 0.217118 0.381516 24.2874 -6.33947 -7.68713 1.38103 -12.9223 4.82867 -2.08842 -13.0579 4.43825 2.01889 5.78355 1.15189 -3.38496 -0.548778 -2.16174 2.32634 -6.12187 15.6262 1.04362e-015 -9.93923e-017 -3.18055e-015 -6.48358 2.8082 1.94814 4.3434 5.24858 4.97961 1.11258 -8.53417 -17.0482 -1.49089e-016 3.97569e-016 -1.59028e-015 
29.4157 96.5346 -329.769 1.39932 1.35829 3.18914 0.307668 -1.63219 -0.520241 -0.96097 -0.601334 -0.176824 0.877249 14.287 -2.72073 5.11326 8.95769 -2.51629 7.91725 2.09888 -3.10869 -21.3964 0.281943 -3.44014 1.49592 -28.7121 -6.4278 4.74573 -28.6295 0.244681 -8.02664 0.227723 0.474948 24.5734 -6.01166 -7.55103 1.14323 -13.6623 4.88073 -2.00797 -13.7858 4.47494 2.02649 5.72486 1.18171 -3.39947 -0.550281 -2.19772 2.33545 -6.07825 15.5833 7.45443e-017 -9.93923e-017 3.18055e-015 -6.48164 2.77509 1.86882 4.33233 5.25119 5.05065 1.10653 -8.50867 -17.1047 -1.98785e-016 0 3.18055e-015 
29.4215 96.541 -329.833 1.40339 1.3854 3.25327 0.296873 -1.64971 -0.510298 -0.929063 -0.563062 -0.177119 0.830016 14.3246 -2.71513 5.10441 8.89581 -2.5071 7.77294 2.05209 -3.13481 -21.5763 0.653213 -4.08181 1.50877 -29.5548 -6.60811 6.01417 -29.4499 0.634669 -8.00851 0.193728 0.576414 24.6283 -6.48742 -7.36388 1.28586 -13.9728 4.8629 -2.01509 -14.1048 4.62879 2.01708 5.63354 1.20402 -3.38741 -0.515878 -2.32278 2.32428 -6.06005 15.608 1.98785e-016 4.96962e-017 -0 -6.49561 2.72966 1.8454 4.34662 5.23057 5.02161 1.09976 -8.47605 -17.1131 -7.45443e-017 -1.98785e-016 -0 
29.4263 96.5449 -329.904 1.42057 1.44461 3.29659 0.268745 -1.71763 -0.50794 -0.891708 -0.511051 -0.175711 0.765845 14.4027 -2.66859 5.1041 8.76857 -2.45121 7.5969 2.01363 -3.14711 -21.8324 0.954292 -4.7424 1.5538 -30.2868 -6.86859 5.28575 -30.1905 0.391569 -7.98392 0.121712 0.693996 24.9078 -6.39123 -7.15258 1.11966 -14.6002 5.02483 -1.68876 -14.7146 4.68258 2.00329 5.51906 1.22259 -3.40675 -0.517462 -2.28898 2.34745 -6.00814 15.501 2.48481e-017 4.96962e-017 -3.18055e-015 -6.50988 2.63421 1.75791 4.32066 5.22755 4.97366 1.17464 -8.4636 -17.0478 -3.72721e-016 1.98785e-016 -0 
29.4705 96.5161 -330.046 1.26885 1.77023 3.51013 0.5563 -1.99709 -0.614645 -1.05707 -0.562757 -0.214404 0.741054 14.565 -2.62781 5.11061 8.58018 -2.39822 7.49564 1.90922 -3.19116 -22.23 1.13342 -5.43145 1.57565 -31.1354 -7.21846 5.9479 -31.0068 0.976893 -7.90241 0.039496 0.801494 24.995 -7.08581 -6.92576 1.28893 -14.9503 5.29514 -1.55118 -15.0684 4.62723 2.10853 4.9999 0.98764 -3.37367 -0.386754 -2.24293 2.36884 -6.20698 15.5152 -5.59082e-017 1.98785e-016 6.36111e-015 -6.43544 2.2256 1.41198 4.37766 5.30419 5.12707 1.15794 -8.46358 -17.0768 -1.2424e-016 -1.98785e-016 -0 
